PathFileType	4	(X/Y/Z) flx_0kg_1.trc																										
DataRate	CameraRate	NumFrames	NumMarkers	Units	OrigDataRate	OrigDataStartFrame	OrigNumFrames																					
100	100	24	9	mm	100	695	794																					
Frame#	Time	gu			centelbow			EpL			centpxt8			centijc7			ij			ts			aa			ai		
		X1	Y1	Z1	X2	Y2	Z2	X3	Y3	Z3	X4	Y4	Z4	X5	Y5	Z5	X6	Y6	Z6	X7	Y7	Z7	X8	Y8	Z8	X9	Y9	Z9  
694	6.94	-67.072	-16.177	168.295	-108.474	-259.26	181.738	-88.028	-257.311	206.59	-46.816	-153.158	-8.669	-46.816	31.938	-8.669	0	0	0	-134.96	24.724	55.037	-104.009	20.05	170.124	-145.274	-88.264	58.622
695	6.95	-67.097	-16.114	168.354	-108.465	-259.2	181.85	-88.028	-257.241	206.707	-46.816	-153.158	-8.669	-46.816	31.938	-8.669	0	0	0	-134.984	24.911	55.074	-104.055	20.292	170.169	-145.273	-88.078	58.704
696	6.96	-67.195	-16.018	168.354	-108.535	-259.105	181.92	-88.103	-257.135	206.781	-46.816	-153.158	-8.669	-46.816	31.938	-8.669	0	0	0	-135.065	24.998	55.084	-104.161	20.437	170.188	-145.339	-87.991	58.765
697	6.97	-67.227	-15.914	168.363	-108.547	-259	182.002	-88.117	-257.021	206.864	-46.816	-153.158	-8.669	-46.816	31.938	-8.669	0	0	0	-135.11	24.997	55.159	-104.233	20.491	170.272	-145.379	-87.991	58.89
698	6.98	-67.142	-15.831	168.447	-108.454	-258.915	182.153	-88.025	-256.929	207.016	-46.816	-153.158	-8.669	-46.816	31.938	-8.669	0	0	0	-135.052	25.019	55.302	-104.206	20.571	170.427	-145.314	-87.967	59.086
699	6.99	-67.059	-15.743	168.616	-108.373	-258.823	182.39	-87.946	-256.829	207.254	-46.816	-153.158	-8.669	-46.816	31.938	-8.669	0	0	0	-134.959	25.128	55.402	-104.143	20.749	170.536	-145.211	-87.857	59.247
700	7	-67.132	-15.613	168.785	-108.445	-258.688	182.632	-88.019	-256.687	207.496	-46.816	-153.158	-8.669	-46.816	31.938	-8.669	0	0	0	-134.954	25.261	55.372	-104.157	20.96	170.514	-145.201	-87.723	59.291
701	7.01	-67.344	-15.475	168.881	-108.646	-258.547	182.818	-88.216	-256.536	207.678	-46.816	-153.158	-8.669	-46.816	31.938	-8.669	0	0	0	-135.028	25.295	55.269	-104.241	21.077	170.417	-145.283	-87.685	59.271
702	7.02	-67.538	-15.369	168.897	-108.824	-258.438	182.951	-88.388	-256.415	207.805	-46.816	-153.158	-8.669	-46.816	31.938	-8.669	0	0	0	-135.088	25.225	55.193	-104.309	21.091	170.347	-145.362	-87.75	59.282
703	7.03	-67.63	-15.27	168.87	-108.904	-258.334	183.044	-88.461	-256.299	207.891	-46.816	-153.158	-8.669	-46.816	31.938	-8.669	0	0	0	-135.102	25.174	55.165	-104.328	21.117	170.323	-145.388	-87.798	59.332
704	7.04	-67.643	-15.167	168.893	-108.925	-258.224	183.155	-88.477	-256.182	207.998	-46.816	-153.158	-8.669	-46.816	31.938	-8.669	0	0	0	-135.053	25.167	55.168	-104.286	21.175	170.33	-145.339	-87.802	59.398
705	7.05	-67.684	-15.086	169.031	-109.001	-258.133	183.351	-88.552	-256.089	208.192	-46.816	-153.158	-8.669	-46.816	31.938	-8.669	0	0	0	-134.983	25.126	55.22	-104.243	21.186	170.391	-145.283	-87.839	59.501
706	7.06	-67.874	-15.03	169.235	-109.24	-258.066	183.604	-88.794	-256.02	208.447	-46.816	-153.158	-8.669	-46.816	31.938	-8.669	0	0	0	-135.069	25.048	55.337	-104.367	21.148	170.519	-145.4	-87.913	59.663
707	7.07	-68.14	-14.995	169.378	-109.528	-258.025	183.799	-89.085	-255.974	208.645	-46.816	-153.158	-8.669	-46.816	31.938	-8.669	0	0	0	-135.278	24.985	55.437	-104.6	21.124	170.628	-145.63	-87.972	59.804
708	7.08	-68.254	-14.99	169.374	-109.623	-258.019	183.843	-89.182	-255.962	208.69	-46.816	-153.158	-8.669	-46.816	31.938	-8.669	0	0	0	-135.323	24.952	55.43	-104.651	21.13	170.623	-145.67	-88.004	59.833
709	7.09	-68.171	-14.998	169.304	-109.518	-258.03	183.803	-89.078	-255.967	208.65	-46.816	-153.158	-8.669	-46.816	31.938	-8.669	0	0	0	-135.193	24.938	55.361	-104.523	21.151	170.556	-145.525	-88.019	59.795
710	7.1	-68.044	-14.97	169.265	-109.398	-258	183.779	-88.959	-255.936	208.627	-46.816	-153.158	-8.669	-46.816	31.938	-8.669	0	0	0	-135.165	24.924	55.306	-104.496	21.162	170.502	-145.501	-88.032	59.766
711	7.11	-67.926	-14.887	169.231	-109.316	-257.91	183.76	-88.876	-255.848	208.607	-46.816	-153.158	-8.669	-46.816	31.938	-8.669	0	0	0	-135.253	24.897	55.248	-104.573	21.155	170.441	-145.613	-88.055	59.734
712	7.12	-67.767	-14.813	169.193	-109.198	-257.828	183.737	-88.759	-255.767	208.585	-46.816	-153.158	-8.669	-46.816	31.938	-8.669	0	0	0	-135.209	24.863	55.213	-104.515	21.135	170.403	-145.591	-88.086	59.72
713	7.13	-67.611	-14.803	169.188	-109.071	-257.813	183.729	-88.637	-255.754	208.581	-46.816	-153.158	-8.669	-46.816	31.938	-8.669	0	0	0	-135.028	24.845	55.267	-104.342	21.123	170.46	-145.416	-88.103	59.782
714	7.14	-67.539	-14.834	169.209	-109.016	-257.843	183.716	-88.592	-255.787	208.577	-46.816	-153.158	-8.669	-46.816	31.938	-8.669	0	0	0	-134.965	24.869	55.39	-104.307	21.149	170.59	-145.351	-88.08	59.903
715	7.15	-67.512	-14.864	169.254	-109.012	-257.873	183.703	-88.599	-255.822	208.574	-46.816	-153.158	-8.669	-46.816	31.938	-8.669	0	0	0	-135.087	24.93	55.501	-104.454	21.208	170.708	-145.471	-88.019	60.009
716	7.16	-67.437	-14.887	169.33	-108.959	-257.895	183.724	-88.557	-255.849	208.604	-46.816	-153.158	-8.669	-46.816	31.938	-8.669	0	0	0	-135.196	24.984	55.523	-104.566	21.254	170.731	-145.573	-87.966	60.021
717	7.17	-67.29	-14.912	169.391	-108.814	-257.922	183.757	-88.421	-255.877	208.644	-46.816	-153.158	-8.669	-46.816	31.938	-8.669	0	0	0	-135.155	25.021	55.413	-104.502	21.287	170.614	-145.507	-87.932	59.903
